<svg width="67" height="72" viewBox="0 0 67 72" fill="none" xmlns="http://www.w3.org/2000/svg">
<path d="M33.3578 0C27.5202 0 24.026 0.886154 21.8049 1.99108C20.693 2.54492 19.9035 3.12646 19.3725 3.72185C18.8388 4.31723 18.5025 5.19231 18.5025 5.19231C18.4153 5.41471 18.3574 5.64741 18.3301 5.88462L16.8512 24.8372C16.8318 24.9535 16.8707 25.1418 16.8512 25.2692L16.6789 27.1745C16.6627 27.3467 16.6627 27.5201 16.6789 27.6923C16.6789 36.8308 24.1844 44.3077 33.3578 44.3077C42.5312 44.3077 50.0367 36.8308 50.0367 27.6923V27.2603C50.0371 27.2317 50.0371 27.2031 50.0367 27.1745L48.3855 5.88462C48.3582 5.64741 48.3003 5.41471 48.2131 5.19231C48.2131 5.19231 47.8768 4.31723 47.3431 3.72185C46.8121 3.12369 46.0226 2.54215 44.9107 1.99108C42.6896 0.883385 39.1954 0 33.3578 0ZM33.3578 44.3077C15.011 44.3077 0 52.9089 0 60.6628V72H66.7156V60.6628C66.7156 53.2966 53.1445 45.1828 36.0514 44.3935C35.1548 44.3346 34.2564 44.306 33.3578 44.3077ZM33.3578 5.53846C38.6395 5.53846 41.2775 6.36923 42.3922 6.92308C42.7647 7.10862 42.8092 7.18062 42.9148 7.26923L44.0434 21.4615C41.486 21.6166 38.0001 22.1538 33.3578 22.1538C28.7155 22.1538 25.2324 21.6166 22.6722 21.4615L23.8008 7.26923C23.9036 7.18062 23.9509 7.10862 24.3234 6.92308C25.4381 6.36923 28.0761 5.53846 33.3578 5.53846ZM31.0978 8.30769V11.5975H27.7982V16.0975H31.1006V19.3846H35.615V16.0948H38.9174V11.5975H35.615V8.30769H31.1006H31.0978ZM25.0183 50.5385L32.143 66.4615H5.55963V60.6628C5.55963 58.5997 12.6482 52.5572 25.0183 50.5385ZM41.6973 50.5385C54.0674 52.56 61.156 58.5997 61.156 60.6628V66.4615H34.5726L41.6973 50.5385Z" fill="#EC5863"/>
</svg>
